<svg xmlns="http://www.w3.org/2000/svg" xml:lang="en"
     xmlns:xlink="http://www.w3.org/1999/xlink"
     height="320px" width="600px" >
    <title>aquietpatientspider</title>
   
   
   
   
  
        
   
   
    <defs>
    <!-- this is where the same thpe of classes go, and ids with labes. its like you try and use css>
    gooddam why did you get high... -->

    <circle id="eyes" cy="155" r="48"/>

    <circle id="minieyes" r="6" stroke="black" fill="grey" strokewidth="1"/>

    </defs>




     <g class="legs" stroke="green" stroke-width="6" fill="blue">
<!--rightside -->
    <path d="M 350,204
                 c 60 -300, 50 -60,  20  5,
                 q -10,40 -20,-5 z"/>

       <path d="M 380,74
                 c 70 400, 60 100,  30  5,
                 q -20,-40 -30,-5 z"/>

<!-- leftside-->
   <path d="M 250,204
                 c -60 -300, -50 -60,  -20  5,
                 q 10,40 20,-5 z"/>

       <path d="M 220,74
                 c -70 400, -60 100,  -30  5,
                 q 20,-40 30,-5 z"/>

        </g>
  
 
     <polygon points="230,190 300,120 370,190" style="fill:lime;stroke:purple;stroke-width:8" />
        <g stroke="black" stroke-width="2">
        <use xlink:href="#eyes" x="250" fill="white"/>
         <use xlink:href="#eyes" x="350" fill="white"/>
        </g>

        <g>
        <use xlink:href="#minieyes" x="250" y="190"/>
          <use xlink:href="#minieyes" x="270" y="180"/>
          <use xlink:href="#minieyes" x="265" y="200"/>
          
          
           <use xlink:href="#minieyes" x="350" y="170" /> 
          <use xlink:href="#minieyes" x="365" y="180"/>
         <use xlink:href="#minieyes" x="380" y="160"/>
          <use xlink:href="#minieyes" x="360" y="150"/>
           <use xlink:href="#minieyes" x="355" y="165"/>
             <use xlink:href="#minieyes" x="340" y="175"/> 

        </g>

        <g stroke="blue" stroke-width="4" fill="black">
        <path d="M 320,204
                 a 25,10 0,0,1 80,0
                 q -8,20 -80,0 z"/>

             <path d="M 210,204
                 a 25,10 0,0,1 80,0
                 q-60,20 -80,0 z"/>

        </g>

<form id="searchform" method="post"
        onsubmit="">   <label>
        <input type="text" value='what are you looking for?' name="searchterm" />
        
   
   
 </label>
    <button id="searchButton" onclick="buildWeb()" type="button" >Send</button>
</form>
      </svg>